<svg height="512" viewBox="0 0 64 64" width="512" xmlns="http://www.w3.org/2000/svg"><g id="Line"><path d="m19 29.5v-3a3 3 0 0 1 3-3h38a3 3 0 0 1 3 3v3zm44 2v28a3 3 0 0 1 -3 3h-38a3 3 0 0 1 -3-3v-28zm-33.59 15 5.3-5.29a1 1 0 0 0 -1.42-1.42l-6 6a1 1 0 0 0 0 1.42l6 6a1 1 0 0 0 1.42-1.42zm13.91-7a1 1 0 0 0 -1.27.63l-4 12a1 1 0 0 0 .63 1.27 1.25 1.25 0 0 0 .32 0 1 1 0 0 0 1-.68l4-12a1 1 0 0 0 -.68-1.17zm11.39 6.24-6-6a1 1 0 0 0 -1.42 1.42l5.3 5.29-5.3 5.29a1 1 0 0 0 1.42 1.42l6-6a1 1 0 0 0 0-1.37z" fill="#c4a2fc"/><path d="m25.78 32.4a16 16 0 1 0 -11.56 0 19.08 19.08 0 0 0 -13.22 18.1 1 1 0 0 0 1 1h36a1 1 0 0 0 1-1 19.07 19.07 0 0 0 -13.22-18.1zm4.08-12.9a4 4 0 0 0 -7.72 0h-4.28a4 4 0 0 0 -7.72 0h-4a14.71 14.71 0 0 1 -.16-2 14.71 14.71 0 0 1 .16-2h4.9a16.24 16.24 0 0 0 11.96-5.19 9.63 9.63 0 0 0 8.51 5.19h2.38a14.71 14.71 0 0 1 .16 2 14.71 14.71 0 0 1 -.16 2zm-1.86 1a2 2 0 1 1 -2-2 2 2 0 0 1 2 2zm-12 0a2 2 0 1 1 -2-2 2 2 0 0 1 2 2zm17.41-7h-1.95a7.77 7.77 0 0 1 -7.13-4.9c.85-1.22 1-1.69 2.08-3.53a14.06 14.06 0 0 1 7 8.43zm-13.41-10a13.77 13.77 0 0 1 4.56.78c-.42.47-3.65 9.22-13.5 9.22h-4.47a14 14 0 0 1 13.41-10zm-13.41 18h3.55a4 4 0 0 0 7.72 0h4.28a4 4 0 0 0 7.72 0h3.55a14 14 0 0 1 -26.82 0zm17.89 12.61c-.48.53-1.33 3.39-4.48 3.39s-4.09-2.94-4.48-3.39a16.76 16.76 0 0 1 9 0zm-13.21 10.51a1 1 0 0 1 1-1.12h15.4a1 1 0 0 1 1 1.12l-.61 4.88h-16.18zm18.8 4.88.58-4.63a3 3 0 0 0 -3-3.37h-15.38a3 3 0 0 0 -3 3.37l.58 4.63h-6.85a17 17 0 0 1 10.58-14.74c.5.56 1.88 4.74 6.42 4.74s5.9-4.15 6.42-4.74a17 17 0 0 1 10.58 14.74z" fill="#151a6a"/></g></svg>