<?xml version="1.0"?>
<svg xmlns="http://www.w3.org/2000/svg" xmlns:xlink="http://www.w3.org/1999/xlink" xmlns:svgjs="http://svgjs.com/svgjs" version="1.1" width="512" height="512" x="0" y="0" viewBox="0 0 512 512" style="enable-background:new 0 0 512 512" xml:space="preserve" class=""><rect width="512" height="512" fill="#074a80" shape="square"/><g transform="matrix(0.7,0,0,0.7,76.80001602172854,76.80000000000001)"><g xmlns="http://www.w3.org/2000/svg"><g><path d="m130.98 191h79.988v50h-79.988v30 80h109.983v-30h-79.988v-50h79.988v-30-80h-109.983z" fill="#e3ac43" data-original="#ffc973" style=""/><path d="m350.946 161v80h-49.992v-80h-29.995v110h79.987v80h29.996v-80-30-80z" fill="#ffb176" data-original="#ffb176" style=""/></g><path d="m436.893 436.96c-48.332 48.35-112.593 75-180.932 75.04h-.16c-68.34 0-132.57-26.6-180.883-74.93-48.332-48.34-74.938-112.62-74.918-181s26.666-132.67 75.029-181.03c48.332-48.35 112.592-75 180.932-75.04h.16c56.881 0 110.913 18.45 155.296 52.49v-22.4l29.995.01-.02 68.62-69.139 8.93-3.84-29.76 22.946-2.96c-38.823-29.15-85.816-44.93-135.238-44.93h-.16c-60.331.04-117.052 23.57-159.726 66.25-42.693 42.7-66.22 99.46-66.24 159.83s23.466 117.11 66.13 159.78c42.644 42.65 99.355 66.14 159.676 66.14h.16c60.331-.04 117.052-23.57 159.726-66.25 64.05-64.06 83.727-159.79 50.122-243.88l27.856-11.13c38.064 95.24 15.777 203.67-56.772 276.22z" fill="#ff775c" data-original="#ff775c" style="" class=""/><g fill="#f94e4e"><path d="m255.961 30v-30h.16c56.881 0 110.913 18.45 155.296 52.49v-22.4l29.995.01-.02 68.62-69.139 8.93-3.84-29.76 22.946-2.96c-38.823-29.15-85.816-44.93-135.238-44.93z" fill="#f94e4e" data-original="#f94e4e" style="" class=""/><path d="m436.893 436.96c-48.332 48.35-112.593 75-180.932 75.04v-30c60.331-.04 117.052-23.57 159.726-66.25 64.05-64.06 83.727-159.79 50.122-243.88l27.856-11.13c38.064 95.24 15.777 203.67-56.772 276.22z" fill="#f94e4e" data-original="#f94e4e" style="" class=""/></g></g></g></svg>
