<svg id="color" enable-background="new 0 0 24 24" height="512" viewBox="0 0 24 24" width="512" xmlns="http://www.w3.org/2000/svg"><path d="m9.25 10.5c-2.895 0-5.25-2.355-5.25-5.25s2.355-5.25 5.25-5.25 5.25 2.355 5.25 5.25-2.355 5.25-5.25 5.25z" fill="#607d8b"/><path d="m9 20c0-.776.331-1.52.907-2.041l2.503-2.253c.508-.456 1.16-.705 1.839-.705.563 0 1.107.178 1.564.493.375-.732 1.058-1.241 1.861-1.415-.856-1.253-2.295-2.079-3.924-2.079h-9c-2.619 0-4.75 2.131-4.75 4.75v4c0 .414.336.75.75.75h8.709c-.291-.444-.459-.962-.459-1.5z" fill="#607d8b"/><path d="m9.25 0c-2.895 0-5.25 2.355-5.25 5.25s2.355 5.25 5.25 5.25c.028 0 .055 0 .083-.001v-10.499c-.028 0-.055 0-.083 0z" fill="#546d79"/><path d="m9.333 12h-4.583c-2.619 0-4.75 2.131-4.75 4.75v4c0 .414.336.75.75.75h8.583v-.211c-.213-.394-.333-.834-.333-1.289 0-.461.117-.912.333-1.31z" fill="#546d79"/><g fill="#1e88e5"><path d="m16.582 23.98c-.404-.093-.655-.495-.563-.899l1.5-6.5c.094-.403.497-.658.899-.562.404.093.655.495.562.899l-1.5 6.5c-.094.413-.509.656-.898.562z"/><path d="m20.75 23c-.205 0-.409-.084-.558-.248-.277-.309-.252-.782.056-1.06l1.881-1.692-1.881-1.692c-.308-.277-.333-.751-.056-1.06.278-.308.752-.332 1.06-.056l2.5 2.25c.158.143.248.345.248.558s-.09.415-.248.558l-2.5 2.25c-.144.129-.323.192-.502.192z"/><path d="m14.25 23c-.179 0-.358-.064-.502-.192l-2.5-2.25c-.158-.143-.248-.345-.248-.558s.09-.415.248-.558l2.5-2.25c.308-.276.782-.251 1.06.056.277.309.252.782-.056 1.06l-1.881 1.692 1.881 1.692c.308.277.333.751.056 1.06-.149.164-.353.248-.558.248z"/></g><path d="m18.27 20h-1.54l-.711 3.081c-.093.404.159.807.563.899.056.014.113.02.169.02.333 0 .649-.229.73-.582z" fill="#1a76c7"/><path d="m24 20h-1.871l-1.881 1.692c-.308.277-.333.751-.056 1.06.149.164.353.248.558.248.179 0 .358-.064.502-.192l2.5-2.25c.158-.143.248-.345.248-.558z" fill="#1a76c7"/><path d="m12.871 20h-1.871c0 .213.09.415.248.558l2.5 2.25c.144.129.323.192.502.192.205 0 .409-.084.558-.248.277-.309.252-.782-.056-1.06z" fill="#1a76c7"/></svg>