<?xml version="1.0"?>
<svg xmlns="http://www.w3.org/2000/svg" xmlns:xlink="http://www.w3.org/1999/xlink" xmlns:svgjs="http://svgjs.com/svgjs" version="1.1" width="512" height="512" x="0" y="0" viewBox="0 0 512 512" style="enable-background:new 0 0 512 512" xml:space="preserve" class=""><rect width="512" height="512" fill="#074a80" shape="square"/><g transform="matrix(0.7,0,0,0.7,76.79999628067017,76.80000000000001)">
<path xmlns="http://www.w3.org/2000/svg" style="" d="M372.832,0H57.642L35.137,255.998L57.642,512h315.189c18.567,0,33.758-15.191,33.758-33.758V33.758  C406.59,15.191,391.399,0,372.832,0z" fill="#f53635" data-original="#f53635" class=""/>
<polygon xmlns="http://www.w3.org/2000/svg" style="" points="476.863,81.807 499.369,135.944 476.863,158.45 454.358,135.944 " fill="#ffd691" data-original="#ffd691"/>
<path xmlns="http://www.w3.org/2000/svg" style="" d="M499.369,472.615v22.505c0,9.284-7.596,16.879-16.879,16.879h-11.253  c-9.284,0-16.879-7.596-16.879-16.879v-22.505l22.505-22.505L499.369,472.615z" fill="#f53635" data-original="#f53635" class=""/>
<rect xmlns="http://www.w3.org/2000/svg" x="454.352" y="135.944" style="" width="45.011" height="336.671" fill="#fab43e" data-original="#fab43e"/>
<rect xmlns="http://www.w3.org/2000/svg" x="136.406" y="78.769" style="" width="191.409" height="101.275" fill="#fdf3c2" data-original="#fdf3c2" class=""/>
<rect xmlns="http://www.w3.org/2000/svg" x="12.631" style="" width="45.011" height="512" fill="#c40200" data-original="#c40200"/>
<g xmlns="http://www.w3.org/2000/svg">
	<path style="" d="M294.066,120.963h-123.9c-4.661,0-8.44-3.778-8.44-8.44s3.779-8.44,8.44-8.44h123.898   c4.661,0,8.44,3.778,8.44,8.44S298.727,120.963,294.066,120.963z" fill="#f53635" data-original="#f53635" class=""/>
	<path style="" d="M294.066,154.721h-123.9c-4.661,0-8.44-3.778-8.44-8.44s3.779-8.44,8.44-8.44h123.898   c4.661,0,8.44,3.778,8.44,8.44C302.504,150.943,298.727,154.721,294.066,154.721z" fill="#f53635" data-original="#f53635" class=""/>
</g>
<g xmlns="http://www.w3.org/2000/svg">
</g>
<g xmlns="http://www.w3.org/2000/svg">
</g>
<g xmlns="http://www.w3.org/2000/svg">
</g>
<g xmlns="http://www.w3.org/2000/svg">
</g>
<g xmlns="http://www.w3.org/2000/svg">
</g>
<g xmlns="http://www.w3.org/2000/svg">
</g>
<g xmlns="http://www.w3.org/2000/svg">
</g>
<g xmlns="http://www.w3.org/2000/svg">
</g>
<g xmlns="http://www.w3.org/2000/svg">
</g>
<g xmlns="http://www.w3.org/2000/svg">
</g>
<g xmlns="http://www.w3.org/2000/svg">
</g>
<g xmlns="http://www.w3.org/2000/svg">
</g>
<g xmlns="http://www.w3.org/2000/svg">
</g>
<g xmlns="http://www.w3.org/2000/svg">
</g>
<g xmlns="http://www.w3.org/2000/svg">
</g>
</g></svg>
